<svg width="19" height="19" viewBox="0 0 19 19" fill="none" xmlns="http://www.w3.org/2000/svg">
<g id="instagram" opacity="0.8" clip-path="url(#clip0_421_115)">
<path id="Vector" d="M13.4581 1.58325H5.54146C3.35534 1.58325 1.58313 3.35546 1.58313 5.54159V13.4583C1.58313 15.6444 3.35534 17.4166 5.54146 17.4166H13.4581C15.6443 17.4166 17.4165 15.6444 17.4165 13.4583V5.54159C17.4165 3.35546 15.6443 1.58325 13.4581 1.58325Z" stroke="#E0E6ED" stroke-width="1.1875" stroke-linecap="round" stroke-linejoin="round"/>
<path id="Vector_2" d="M12.6664 9.00124C12.7641 9.66011 12.6516 10.333 12.3448 10.9242C12.038 11.5154 11.5527 11.9949 10.9577 12.2943C10.3628 12.5938 9.68853 12.698 9.03092 12.5922C8.37332 12.4864 7.76582 12.1759 7.29484 11.7049C6.82386 11.2339 6.51338 10.6264 6.40756 9.96883C6.30174 9.31122 6.40598 8.63699 6.70543 8.04204C7.00489 7.44709 7.48432 6.96171 8.07554 6.65494C8.66675 6.34817 9.33965 6.23563 9.99851 6.33333C10.6706 6.43299 11.2928 6.74615 11.7732 7.22657C12.2536 7.70699 12.5668 8.32918 12.6664 9.00124Z" stroke="#E0E6ED" stroke-width="1.1875" stroke-linecap="round" stroke-linejoin="round"/>
<path id="Vector_3" d="M13.8542 5.14575H13.8629" stroke="#E0E6ED" stroke-width="1.1875" stroke-linecap="round" stroke-linejoin="round"/>
</g>
<defs>
<clipPath id="clip0_421_115">
<rect width="19" height="19" fill="white"/>
</clipPath>
</defs>
</svg>
