<svg width="16" height="16" viewBox="0 0 16 16" fill="none" xmlns="http://www.w3.org/2000/svg">
<g id="instagram" clip-path="url(#clip0_405_47)">
<path id="Vector" d="M11.3333 1.33337H4.66659C2.82564 1.33337 1.33325 2.82576 1.33325 4.66671V11.3334C1.33325 13.1743 2.82564 14.6667 4.66659 14.6667H11.3333C13.1742 14.6667 14.6666 13.1743 14.6666 11.3334V4.66671C14.6666 2.82576 13.1742 1.33337 11.3333 1.33337Z" stroke="#FFC82C" stroke-linecap="round" stroke-linejoin="round"/>
<path id="Vector_2" d="M10.6666 7.58008C10.7488 8.13491 10.6541 8.70156 10.3957 9.19942C10.1374 9.69729 9.72865 10.101 9.22764 10.3532C8.72662 10.6054 8.15885 10.6931 7.60508 10.604C7.0513 10.5149 6.53973 10.2535 6.14311 9.85685C5.7465 9.46024 5.48504 8.94866 5.39593 8.39489C5.30682 7.84111 5.3946 7.27334 5.64677 6.77233C5.89894 6.27131 6.30268 5.86257 6.80054 5.60424C7.29841 5.34591 7.86506 5.25114 8.41989 5.33341C8.98583 5.41734 9.50979 5.68105 9.91435 6.08562C10.3189 6.49018 10.5826 7.01413 10.6666 7.58008Z" stroke="#FFC82C" stroke-linecap="round" stroke-linejoin="round"/>
<path id="Vector_3" d="M11.6666 4.33337H11.674" stroke="#FFC82C" stroke-linecap="round" stroke-linejoin="round"/>
</g>
<defs>
<clipPath id="clip0_405_47">
<rect width="16" height="16" fill="white"/>
</clipPath>
</defs>
</svg>
