<svg width="18" height="18" viewBox="0 0 18 18" fill="none" xmlns="http://www.w3.org/2000/svg">
<path id="Vector" d="M16.9105 12.9361V15.3361C16.9114 15.5589 16.8658 15.7794 16.7765 15.9836C16.6872 16.1877 16.5563 16.3709 16.3922 16.5216C16.228 16.6722 16.0342 16.7869 15.8231 16.8582C15.612 16.9296 15.3884 16.9561 15.1665 16.9361C12.7048 16.6686 10.3401 15.8274 8.26249 14.4801C6.32956 13.2518 4.69076 11.613 3.46249 9.68008C2.11048 7.59304 1.26909 5.21687 1.00649 2.74408C0.986502 2.52285 1.01279 2.29989 1.08369 2.08938C1.15459 1.87887 1.26855 1.68543 1.41831 1.52137C1.56806 1.35732 1.75034 1.22625 1.95353 1.1365C2.15671 1.04675 2.37637 1.00029 2.59849 1.00008H4.99849C5.38674 0.996256 5.76313 1.13374 6.0575 1.3869C6.35188 1.64007 6.54415 1.99163 6.59849 2.37608C6.69979 3.14413 6.88765 3.89826 7.15849 4.62408C7.26613 4.91042 7.28942 5.22161 7.22562 5.52078C7.16181 5.81995 7.01358 6.09457 6.79849 6.31208L5.78249 7.32808C6.92134 9.33091 8.57966 10.9892 10.5825 12.1281L11.5985 11.1121C11.816 10.897 12.0906 10.7488 12.3898 10.685C12.689 10.6211 13.0002 10.6444 13.2865 10.7521C14.0123 11.0229 14.7664 11.2108 15.5345 11.3121C15.9231 11.3669 16.278 11.5626 16.5317 11.8621C16.7854 12.1615 16.9202 12.5437 16.9105 12.9361Z" stroke="#8492A6" stroke-linecap="round" stroke-linejoin="round"/>
</svg>
