<svg width="19" height="19" viewBox="0 0 19 19" fill="none" xmlns="http://www.w3.org/2000/svg">
<g id="youtube" opacity="0.8">
<path id="Vector" d="M17.8441 5.08258C17.7501 4.70686 17.5586 4.36262 17.2889 4.08461C17.0192 3.80661 16.681 3.60469 16.3083 3.49925C14.9466 3.16675 9.49998 3.16675 9.49998 3.16675C9.49998 3.16675 4.05332 3.16675 2.69165 3.53091C2.31897 3.63635 1.98072 3.83827 1.71105 4.11628C1.44138 4.39428 1.24986 4.73853 1.15582 5.11425C0.906613 6.49615 0.784713 7.89799 0.791651 9.30216C0.782768 10.7169 0.904676 12.1294 1.15582 13.5217C1.25949 13.8858 1.45531 14.2169 1.72435 14.4832C1.99339 14.7495 2.32655 14.9418 2.69165 15.0417C4.05332 15.4059 9.49998 15.4059 9.49998 15.4059C9.49998 15.4059 14.9466 15.4059 16.3083 15.0417C16.681 14.9363 17.0192 14.7344 17.2889 14.4564C17.5586 14.1784 17.7501 13.8341 17.8441 13.4584C18.0914 12.0869 18.2133 10.6958 18.2083 9.30216C18.2172 7.88742 18.0953 6.47488 17.8441 5.08258V5.08258Z" stroke="#E0E6ED" stroke-width="1.1875" stroke-linecap="round" stroke-linejoin="round"/>
<path id="Vector_2" d="M7.71875 11.8909L12.2708 9.30213L7.71875 6.71338V11.8909Z" stroke="#E0E6ED" stroke-width="1.1875" stroke-linecap="round" stroke-linejoin="round"/>
</g>
</svg>
