<svg width="16" height="16" viewBox="0 0 16 16" fill="none" xmlns="http://www.w3.org/2000/svg">
<g id="youtube">
<path id="Vector" d="M15.0268 4.27996C14.9476 3.96357 14.7863 3.67367 14.5592 3.43956C14.3321 3.20545 14.0473 3.03542 13.7334 2.94663C12.5868 2.66663 8.00009 2.66663 8.00009 2.66663C8.00009 2.66663 3.41343 2.66663 2.26676 2.97329C1.95293 3.06208 1.66808 3.23212 1.44099 3.46623C1.21391 3.70034 1.05262 3.99023 0.97343 4.30663C0.763573 5.47033 0.66092 6.65083 0.666763 7.83329C0.659282 9.02466 0.761941 10.2142 0.97343 11.3866C1.06074 11.6932 1.22563 11.9721 1.45219 12.1963C1.67875 12.4205 1.95931 12.5825 2.26676 12.6666C3.41343 12.9733 8.00009 12.9733 8.00009 12.9733C8.00009 12.9733 12.5868 12.9733 13.7334 12.6666C14.0473 12.5778 14.3321 12.4078 14.5592 12.1737C14.7863 11.9396 14.9476 11.6497 15.0268 11.3333C15.235 10.1784 15.3376 9.00685 15.3334 7.83329C15.3409 6.64193 15.2382 5.45242 15.0268 4.27996V4.27996Z" stroke="#FFC82C" stroke-linecap="round" stroke-linejoin="round"/>
<path id="Vector_2" d="M6.5 10.0133L10.3333 7.83332L6.5 5.65332V10.0133Z" stroke="#FFC82C" stroke-linecap="round" stroke-linejoin="round"/>
</g>
</svg>
