<svg width="182" height="57" viewBox="0 0 182 57" fill="none" xmlns="http://www.w3.org/2000/svg">
<g id="Vector" opacity="0.8">
<path d="M18.904 5.29606L15.576 22.0001H14.04L14.68 18.7361C13.8693 19.8027 12.856 20.6347 11.64 21.2321C10.4453 21.8294 9.112 22.1281 7.64 22.1281C5.464 22.1281 3.71467 21.5094 2.392 20.2721C1.09067 19.0134 0.440002 17.3174 0.440002 15.1841C0.440002 13.2854 0.845336 11.5787 1.656 10.0641C2.46667 8.52806 3.58667 7.33339 5.016 6.48006C6.46667 5.60539 8.088 5.16806 9.88 5.16806C11.608 5.16806 13.0373 5.54139 14.168 6.28806C15.2987 7.03472 16.0667 8.09072 16.472 9.45606L17.304 5.29606H18.904ZM7.96 20.6881C9.45334 20.6881 10.7867 20.3254 11.96 19.6001C13.1547 18.8747 14.0933 17.8721 14.776 16.5921C15.4587 15.2907 15.8 13.8294 15.8 12.2081C15.8 10.4374 15.2773 9.06139 14.232 8.08006C13.208 7.09872 11.7573 6.60806 9.88 6.60806C8.38667 6.60806 7.04267 6.98139 5.848 7.72806C4.67467 8.45339 3.74667 9.46672 3.064 10.7681C2.38134 12.0481 2.04 13.4881 2.04 15.0881C2.04 16.8587 2.552 18.2347 3.576 19.2161C4.62134 20.1974 6.08267 20.6881 7.96 20.6881Z" fill="white"/>
</g>
</svg>
