<svg xmlns="http://www.w3.org/2000/svg" width="182" height="57" viewBox="0 0 182 57" fill="none">
  <g opacity="0.8">
    <path d="M32.1477 18.5569C32.1619 16.0711 33.6392 14.5938 35.8409 14.5938C38.071 14.5938 39.3636 16.0285 39.3494 18.4574V31.0001H46.2955V17.0938C46.3097 12.1506 43.2983 8.89779 38.7102 8.89779C35.4432 8.89779 33.142 10.5029 32.1619 13.1876H31.9205V1.90915H25.2017V31.0001H32.1477V18.5569Z" fill="white"/>
    <path d="M50.6314 31.0001H57.5774V9.18188H50.6314V31.0001ZM54.1115 6.63926C56.0859 6.63926 57.6768 5.14778 57.6768 3.3154C57.6768 1.48301 56.0859 0.0057373 54.1115 0.0057373C52.1513 0.0057373 50.5462 1.48301 50.5462 3.3154C50.5462 5.14778 52.1513 6.63926 54.1115 6.63926Z" fill="white"/>
    <path d="M81.0469 15.8438C80.6776 11.5256 77.1406 8.89779 71.2315 8.89779C65.3224 8.89779 61.5582 11.4688 61.5867 15.8438C61.5582 19.1961 63.7031 21.3552 68.0639 22.1648L71.8707 22.8893C73.6747 23.2444 74.4986 23.8126 74.527 24.7785C74.4986 25.8722 73.277 26.5966 71.5014 26.5966C69.527 26.5966 68.1918 25.7444 67.8935 24.1535L61.0327 24.3239C61.5298 28.6421 65.2372 31.412 71.473 31.412C77.3111 31.412 81.5582 28.5001 81.5866 24.0114C81.5582 20.8296 79.456 18.9404 75.1094 18.1023L70.9048 17.3069C69.0582 16.9376 68.4616 16.2841 68.4759 15.4461C68.4616 14.3381 69.7543 13.6563 71.3594 13.6563C73.1918 13.6563 74.4702 14.6364 74.669 16.0143L81.0469 15.8438Z" fill="white"/>
    <path d="M97.3217 9.18188H93.3871V3.9546H86.4411V9.18188H83.5575V14.2955H86.4411V24.9063C86.3984 29.3239 89.2678 31.5398 94.1683 31.3126C95.8445 31.2273 97.0519 30.8864 97.7195 30.6876L96.6683 25.6734C96.37 25.7444 95.674 25.8864 95.1484 25.8864C94.0263 25.8864 93.3871 25.4319 93.3871 24.1393V14.2955H97.3217V9.18188Z" fill="white"/>
    <path d="M110.816 31.412C117.677 31.412 121.839 26.8807 121.839 20.162C121.839 13.429 117.677 8.89779 110.816 8.89779C103.955 8.89779 99.7933 13.429 99.7933 20.162C99.7933 26.8807 103.955 31.412 110.816 31.412ZM110.859 26.1705C108.288 26.1705 106.867 23.7273 106.867 20.1194C106.867 16.4972 108.288 14.0398 110.859 14.0398C113.344 14.0398 114.765 16.4972 114.765 20.1194C114.765 23.7273 113.344 26.1705 110.859 26.1705ZM108.415 6.41199H113.146L117.435 0.0057373H111.285L108.415 6.41199Z" fill="white"/>
    <path d="M125.397 31.0001H132.343V19.1535C132.343 16.554 134.19 14.8069 136.675 14.8069C137.499 14.8069 138.735 14.9489 139.403 15.1762V9.13926C138.82 8.98301 138.096 8.88358 137.457 8.88358C135.07 8.88358 133.167 10.2756 132.371 13.1591H132.144V9.18188H125.397V31.0001Z" fill="white"/>
    <path d="M142.233 31.0001H149.179V9.18188H142.233V31.0001ZM145.713 6.63926C147.688 6.63926 149.278 5.14778 149.278 3.3154C149.278 1.48301 147.688 0.0057373 145.713 0.0057373C143.753 0.0057373 142.148 1.48301 142.148 3.3154C142.148 5.14778 143.753 6.63926 145.713 6.63926Z" fill="white"/>
    <path d="M159.751 31.3694C162.79 31.3694 164.893 30.1904 166.086 27.9603H166.256V31.0001H172.79V16.1705C172.79 11.554 168.685 8.89779 163.131 8.89779C157.265 8.89779 153.941 11.8523 153.387 15.8296L159.793 16.0569C160.092 14.6648 161.242 13.8126 163.075 13.8126C164.779 13.8126 165.859 14.6364 165.859 16.0995V16.1705C165.859 17.5057 164.41 17.7898 160.688 18.1165C156.271 18.4859 152.577 20.1194 152.577 24.9489C152.577 29.2671 155.575 31.3694 159.751 31.3694ZM161.896 26.8239C160.29 26.8239 159.154 26.0569 159.154 24.608C159.154 23.2018 160.262 22.3495 162.237 22.0512C163.529 21.8665 165.12 21.5824 165.901 21.1705V23.2444C165.901 25.3751 164.112 26.8239 161.896 26.8239Z" fill="white"/>
    <path d="M33.386 50.6901C33.386 51.0021 33.368 51.3321 33.332 51.6801H25.448C25.508 52.6521 25.838 53.4141 26.438 53.9661C27.05 54.5061 27.788 54.7761 28.652 54.7761C29.36 54.7761 29.948 54.6141 30.416 54.2901C30.896 53.9541 31.232 53.5101 31.424 52.9581H33.188C32.924 53.9061 32.396 54.6801 31.604 55.2801C30.812 55.8681 29.828 56.1621 28.652 56.1621C27.716 56.1621 26.876 55.9521 26.132 55.5321C25.4 55.1121 24.824 54.5181 24.404 53.7501C23.984 52.9701 23.774 52.0701 23.774 51.0501C23.774 50.0301 23.978 49.1361 24.386 48.3681C24.794 47.6001 25.364 47.0121 26.096 46.6041C26.84 46.1841 27.692 45.9741 28.652 45.9741C29.588 45.9741 30.416 46.1781 31.136 46.5861C31.856 46.9941 32.408 47.5581 32.792 48.2781C33.188 48.9861 33.386 49.7901 33.386 50.6901ZM31.694 50.3481C31.694 49.7241 31.556 49.1901 31.28 48.7461C31.004 48.2901 30.626 47.9481 30.146 47.7201C29.678 47.4801 29.156 47.3601 28.58 47.3601C27.752 47.3601 27.044 47.6241 26.456 48.1521C25.88 48.6801 25.55 49.4121 25.466 50.3481H31.694Z" fill="white"/>
    <path d="M39.0401 56.1621C38.2841 56.1621 37.6061 56.0361 37.0061 55.7841C36.4061 55.5201 35.9321 55.1601 35.5841 54.7041C35.2361 54.2361 35.0441 53.7021 35.0081 53.1021H36.7001C36.7481 53.5941 36.9761 53.9961 37.3841 54.3081C37.8041 54.6201 38.3501 54.7761 39.0221 54.7761C39.6461 54.7761 40.1381 54.6381 40.4981 54.3621C40.8581 54.0861 41.0381 53.7381 41.0381 53.3181C41.0381 52.8861 40.8461 52.5681 40.4621 52.3641C40.0781 52.1481 39.4841 51.9381 38.6801 51.7341C37.9481 51.5421 37.3481 51.3501 36.8801 51.1581C36.4241 50.9541 36.0281 50.6601 35.6921 50.2761C35.3681 49.8801 35.2061 49.3641 35.2061 48.7281C35.2061 48.2241 35.3561 47.7621 35.6561 47.3421C35.9561 46.9221 36.3821 46.5921 36.9341 46.3521C37.4861 46.1001 38.1161 45.9741 38.8241 45.9741C39.9161 45.9741 40.7981 46.2501 41.4701 46.8021C42.1421 47.3541 42.5021 48.1101 42.5501 49.0701H40.9121C40.8761 48.5541 40.6661 48.1401 40.2821 47.8281C39.9101 47.5161 39.4061 47.3601 38.7701 47.3601C38.1821 47.3601 37.7141 47.4861 37.3661 47.7381C37.0181 47.9901 36.8441 48.3201 36.8441 48.7281C36.8441 49.0521 36.9461 49.3221 37.1501 49.5381C37.3661 49.7421 37.6301 49.9101 37.9421 50.0421C38.2661 50.1621 38.7101 50.3001 39.2741 50.4561C39.9821 50.6481 40.5581 50.8401 41.0021 51.0321C41.4461 51.2121 41.8241 51.4881 42.1361 51.8601C42.4601 52.2321 42.6281 52.7181 42.6401 53.3181C42.6401 53.8581 42.4901 54.3441 42.1901 54.7761C41.8901 55.2081 41.4641 55.5501 40.9121 55.8021C40.3721 56.0421 39.7481 56.1621 39.0401 56.1621Z" fill="white"/>
    <path d="M46.9504 47.4861V53.3001C46.9504 53.7801 47.0524 54.1221 47.2564 54.3261C47.4604 54.5181 47.8144 54.6141 48.3184 54.6141H49.5244V56.0001H48.0484C47.1364 56.0001 46.4524 55.7901 45.9964 55.3701C45.5404 54.9501 45.3124 54.2601 45.3124 53.3001V47.4861H44.0344V46.1361H45.3124V43.6521H46.9504V46.1361H49.5244V47.4861H46.9504Z" fill="white"/>
    <path d="M50.897 51.0321C50.897 50.0241 51.101 49.1421 51.509 48.3861C51.917 47.6181 52.475 47.0241 53.183 46.6041C53.903 46.1841 54.701 45.9741 55.577 45.9741C56.441 45.9741 57.191 46.1601 57.827 46.5321C58.4631 46.9041 58.937 47.3721 59.2491 47.9361V46.1361H60.905V56.0001H59.2491V54.1641C58.925 54.7401 58.439 55.2201 57.791 55.6041C57.155 55.9761 56.411 56.1621 55.559 56.1621C54.683 56.1621 53.891 55.9461 53.183 55.5141C52.475 55.0821 51.917 54.4761 51.509 53.6961C51.101 52.9161 50.897 52.0281 50.897 51.0321ZM59.2491 51.0501C59.2491 50.3061 59.099 49.6581 58.799 49.1061C58.4991 48.5541 58.091 48.1341 57.5751 47.8461C57.071 47.5461 56.5131 47.3961 55.9011 47.3961C55.2891 47.3961 54.7311 47.5401 54.2271 47.8281C53.723 48.1161 53.321 48.5361 53.021 49.0881C52.7211 49.6401 52.571 50.2881 52.571 51.0321C52.571 51.7881 52.7211 52.4481 53.021 53.0121C53.321 53.5641 53.723 53.9901 54.2271 54.2901C54.7311 54.5781 55.2891 54.7221 55.9011 54.7221C56.5131 54.7221 57.071 54.5781 57.5751 54.2901C58.091 53.9901 58.4991 53.5641 58.799 53.0121C59.099 52.4481 59.2491 51.7941 59.2491 51.0501ZM57.9711 43.3461L54.1371 45.3981V44.1741L57.9711 41.9241V43.3461Z" fill="white"/>
    <path d="M73.2779 45.9561C74.4779 45.9561 75.4499 46.3221 76.1939 47.0541C76.9379 47.7741 77.3099 48.8181 77.3099 50.1861V56.0001H75.6899V50.4201C75.6899 49.4361 75.4439 48.6861 74.9519 48.1701C74.4599 47.6421 73.7879 47.3781 72.9359 47.3781C72.0719 47.3781 71.3819 47.6481 70.8659 48.1881C70.3619 48.7281 70.1099 49.5141 70.1099 50.5461V56.0001H68.4719V46.1361H70.1099V47.5401C70.4339 47.0361 70.8719 46.6461 71.4239 46.3701C71.9879 46.0941 72.6059 45.9561 73.2779 45.9561Z" fill="white"/>
    <path d="M84.2876 56.1621C83.3636 56.1621 82.5236 55.9521 81.7676 55.5321C81.0236 55.1121 80.4356 54.5181 80.0036 53.7501C79.5836 52.9701 79.3736 52.0701 79.3736 51.0501C79.3736 50.0421 79.5896 49.1541 80.0216 48.3861C80.4656 47.6061 81.0656 47.0121 81.8216 46.6041C82.5776 46.1841 83.4236 45.9741 84.3596 45.9741C85.2956 45.9741 86.1416 46.1841 86.8976 46.6041C87.6536 47.0121 88.2476 47.6001 88.6796 48.3681C89.1236 49.1361 89.3456 50.0301 89.3456 51.0501C89.3456 52.0701 89.1176 52.9701 88.6616 53.7501C88.2176 54.5181 87.6116 55.1121 86.8436 55.5321C86.0756 55.9521 85.2236 56.1621 84.2876 56.1621ZM84.2876 54.7221C84.8756 54.7221 85.4276 54.5841 85.9436 54.3081C86.4596 54.0321 86.8736 53.6181 87.1856 53.0661C87.5096 52.5141 87.6716 51.8421 87.6716 51.0501C87.6716 50.2581 87.5156 49.5861 87.2036 49.0341C86.8916 48.4821 86.4836 48.0741 85.9796 47.8101C85.4756 47.5341 84.9296 47.3961 84.3416 47.3961C83.7416 47.3961 83.1896 47.5341 82.6856 47.8101C82.1936 48.0741 81.7976 48.4821 81.4976 49.0341C81.1976 49.5861 81.0476 50.2581 81.0476 51.0501C81.0476 51.8541 81.1916 52.5321 81.4796 53.0841C81.7796 53.6361 82.1756 54.0501 82.6676 54.3261C83.1596 54.5901 83.6996 54.7221 84.2876 54.7221Z" fill="white"/>
    <path d="M94.9913 56.1621C94.2353 56.1621 93.5573 56.0361 92.9573 55.7841C92.3573 55.5201 91.8833 55.1601 91.5353 54.7041C91.1873 54.2361 90.9953 53.7021 90.9593 53.1021H92.6513C92.6993 53.5941 92.9273 53.9961 93.3353 54.3081C93.7553 54.6201 94.3013 54.7761 94.9733 54.7761C95.5973 54.7761 96.0893 54.6381 96.4493 54.3621C96.8093 54.0861 96.9893 53.7381 96.9893 53.3181C96.9893 52.8861 96.7973 52.5681 96.4133 52.3641C96.0293 52.1481 95.4353 51.9381 94.6313 51.7341C93.8993 51.5421 93.2993 51.3501 92.8313 51.1581C92.3753 50.9541 91.9793 50.6601 91.6433 50.2761C91.3193 49.8801 91.1573 49.3641 91.1573 48.7281C91.1573 48.2241 91.3073 47.7621 91.6073 47.3421C91.9073 46.9221 92.3333 46.5921 92.8853 46.3521C93.4373 46.1001 94.0673 45.9741 94.7753 45.9741C95.8673 45.9741 96.7493 46.2501 97.4213 46.8021C98.0933 47.3541 98.4533 48.1101 98.5013 49.0701H96.8633C96.8273 48.5541 96.6173 48.1401 96.2333 47.8281C95.8613 47.5161 95.3573 47.3601 94.7213 47.3601C94.1333 47.3601 93.6653 47.4861 93.3173 47.7381C92.9693 47.9901 92.7953 48.3201 92.7953 48.7281C92.7953 49.0521 92.8973 49.3221 93.1013 49.5381C93.3173 49.7421 93.5813 49.9101 93.8933 50.0421C94.2173 50.1621 94.6613 50.3001 95.2253 50.4561C95.9333 50.6481 96.5093 50.8401 96.9533 51.0321C97.3973 51.2121 97.7753 51.4881 98.0873 51.8601C98.4113 52.2321 98.5793 52.7181 98.5913 53.3181C98.5913 53.8581 98.4413 54.3441 98.1413 54.7761C97.8413 55.2081 97.4153 55.5501 96.8633 55.8021C96.3233 56.0421 95.6993 56.1621 94.9913 56.1621Z" fill="white"/>
    <path d="M105.09 51.0321C105.09 50.0241 105.294 49.1421 105.702 48.3861C106.11 47.6181 106.668 47.0241 107.376 46.6041C108.096 46.1841 108.9 45.9741 109.788 45.9741C110.556 45.9741 111.27 46.1541 111.93 46.5141C112.59 46.8621 113.094 47.3241 113.442 47.9001V42.6801H115.098V56.0001H113.442V54.1461C113.118 54.7341 112.638 55.2201 112.002 55.6041C111.366 55.9761 110.622 56.1621 109.77 56.1621C108.894 56.1621 108.096 55.9461 107.376 55.5141C106.668 55.0821 106.11 54.4761 105.702 53.6961C105.294 52.9161 105.09 52.0281 105.09 51.0321ZM113.442 51.0501C113.442 50.3061 113.292 49.6581 112.992 49.1061C112.692 48.5541 112.284 48.1341 111.768 47.8461C111.264 47.5461 110.706 47.3961 110.094 47.3961C109.482 47.3961 108.924 47.5401 108.42 47.8281C107.916 48.1161 107.514 48.5361 107.214 49.0881C106.914 49.6401 106.764 50.2881 106.764 51.0321C106.764 51.7881 106.914 52.4481 107.214 53.0121C107.514 53.5641 107.916 53.9901 108.42 54.2901C108.924 54.5781 109.482 54.7221 110.094 54.7221C110.706 54.7221 111.264 54.5781 111.768 54.2901C112.284 53.9901 112.692 53.5641 112.992 53.0121C113.292 52.4481 113.442 51.7941 113.442 51.0501Z" fill="white"/>
    <path d="M126.866 50.6901C126.866 51.0021 126.848 51.3321 126.812 51.6801H118.928C118.988 52.6521 119.318 53.4141 119.918 53.9661C120.53 54.5061 121.268 54.7761 122.132 54.7761C122.84 54.7761 123.428 54.6141 123.896 54.2901C124.376 53.9541 124.712 53.5101 124.904 52.9581H126.668C126.404 53.9061 125.876 54.6801 125.084 55.2801C124.292 55.8681 123.308 56.1621 122.132 56.1621C121.196 56.1621 120.356 55.9521 119.612 55.5321C118.88 55.1121 118.304 54.5181 117.884 53.7501C117.464 52.9701 117.254 52.0701 117.254 51.0501C117.254 50.0301 117.458 49.1361 117.866 48.3681C118.274 47.6001 118.844 47.0121 119.576 46.6041C120.32 46.1841 121.172 45.9741 122.132 45.9741C123.068 45.9741 123.896 46.1781 124.616 46.5861C125.336 46.9941 125.888 47.5581 126.272 48.2781C126.668 48.9861 126.866 49.7901 126.866 50.6901ZM125.174 50.3481C125.174 49.7241 125.036 49.1901 124.76 48.7461C124.484 48.2901 124.106 47.9481 123.626 47.7201C123.158 47.4801 122.636 47.3601 122.06 47.3601C121.232 47.3601 120.524 47.6241 119.936 48.1521C119.36 48.6801 119.03 49.4121 118.946 50.3481H125.174Z" fill="white"/>
    <path d="M131.027 47.4861V53.3001C131.027 53.7801 131.129 54.1221 131.333 54.3261C131.537 54.5181 131.891 54.6141 132.395 54.6141H133.601V56.0001H132.125C131.213 56.0001 130.529 55.7901 130.073 55.3701C129.617 54.9501 129.389 54.2601 129.389 53.3001V47.4861H128.111V46.1361H129.389V43.6521H131.027V46.1361H133.601V47.4861H131.027Z" fill="white"/>
    <path d="M134.973 51.0321C134.973 50.0241 135.177 49.1421 135.585 48.3861C135.993 47.6181 136.551 47.0241 137.259 46.6041C137.979 46.1841 138.777 45.9741 139.653 45.9741C140.517 45.9741 141.267 46.1601 141.903 46.5321C142.539 46.9041 143.013 47.3721 143.325 47.9361V46.1361H144.981V56.0001H143.325V54.1641C143.001 54.7401 142.515 55.2201 141.867 55.6041C141.231 55.9761 140.487 56.1621 139.635 56.1621C138.759 56.1621 137.967 55.9461 137.259 55.5141C136.551 55.0821 135.993 54.4761 135.585 53.6961C135.177 52.9161 134.973 52.0281 134.973 51.0321ZM143.325 51.0501C143.325 50.3061 143.175 49.6581 142.875 49.1061C142.575 48.5541 142.167 48.1341 141.651 47.8461C141.147 47.5461 140.589 47.3961 139.977 47.3961C139.365 47.3961 138.807 47.5401 138.303 47.8281C137.799 48.1161 137.397 48.5361 137.097 49.0881C136.797 49.6401 136.647 50.2881 136.647 51.0321C136.647 51.7881 136.797 52.4481 137.097 53.0121C137.397 53.5641 137.799 53.9901 138.303 54.2901C138.807 54.5781 139.365 54.7221 139.977 54.7221C140.589 54.7221 141.147 54.5781 141.651 54.2901C142.167 53.9901 142.575 53.5641 142.875 53.0121C143.175 52.4481 143.325 51.7941 143.325 51.0501Z" fill="white"/>
    <path d="M149.387 42.6801V56.0001H147.749V42.6801H149.387Z" fill="white"/>
    <path d="M157.075 45.9561C157.819 45.9561 158.491 46.1181 159.091 46.4421C159.691 46.7541 160.159 47.2281 160.495 47.8641C160.843 48.5001 161.017 49.2741 161.017 50.1861V56.0001H159.397V50.4201C159.397 49.4361 159.151 48.6861 158.659 48.1701C158.167 47.6421 157.495 47.3781 156.643 47.3781C155.779 47.3781 155.089 47.6481 154.573 48.1881C154.069 48.7281 153.817 49.5141 153.817 50.5461V56.0001H152.179V42.6801H153.817V47.5401C154.141 47.0361 154.585 46.6461 155.149 46.3701C155.725 46.0941 156.367 45.9561 157.075 45.9561Z" fill="white"/>
    <path d="M172.693 50.6901C172.693 51.0021 172.675 51.3321 172.639 51.6801H164.755C164.815 52.6521 165.145 53.4141 165.745 53.9661C166.357 54.5061 167.095 54.7761 167.959 54.7761C168.667 54.7761 169.255 54.6141 169.723 54.2901C170.203 53.9541 170.539 53.5101 170.731 52.9581H172.495C172.231 53.9061 171.703 54.6801 170.911 55.2801C170.119 55.8681 169.135 56.1621 167.959 56.1621C167.023 56.1621 166.183 55.9521 165.439 55.5321C164.707 55.1121 164.131 54.5181 163.711 53.7501C163.291 52.9701 163.081 52.0701 163.081 51.0501C163.081 50.0301 163.285 49.1361 163.693 48.3681C164.101 47.6001 164.671 47.0121 165.403 46.6041C166.147 46.1841 166.999 45.9741 167.959 45.9741C168.895 45.9741 169.723 46.1781 170.443 46.5861C171.163 46.9941 171.715 47.5581 172.099 48.2781C172.495 48.9861 172.693 49.7901 172.693 50.6901ZM171.001 50.3481C171.001 49.7241 170.863 49.1901 170.587 48.7461C170.311 48.2901 169.933 47.9481 169.453 47.7201C168.985 47.4801 168.463 47.3601 167.887 47.3601C167.059 47.3601 166.351 47.6241 165.763 48.1521C165.187 48.6801 164.857 49.4121 164.773 50.3481H171.001Z" fill="white"/>
    <path d="M178.347 56.1621C177.591 56.1621 176.913 56.0361 176.313 55.7841C175.713 55.5201 175.239 55.1601 174.891 54.7041C174.543 54.2361 174.351 53.7021 174.315 53.1021H176.007C176.055 53.5941 176.283 53.9961 176.691 54.3081C177.111 54.6201 177.657 54.7761 178.329 54.7761C178.953 54.7761 179.445 54.6381 179.805 54.3621C180.165 54.0861 180.345 53.7381 180.345 53.3181C180.345 52.8861 180.153 52.5681 179.769 52.3641C179.385 52.1481 178.791 51.9381 177.987 51.7341C177.255 51.5421 176.655 51.3501 176.187 51.1581C175.731 50.9541 175.335 50.6601 174.999 50.2761C174.675 49.8801 174.513 49.3641 174.513 48.7281C174.513 48.2241 174.663 47.7621 174.963 47.3421C175.263 46.9221 175.689 46.5921 176.241 46.3521C176.793 46.1001 177.423 45.9741 178.131 45.9741C179.223 45.9741 180.105 46.2501 180.777 46.8021C181.449 47.3541 181.809 48.1101 181.857 49.0701H180.219C180.183 48.5541 179.973 48.1401 179.589 47.8281C179.217 47.5161 178.713 47.3601 178.077 47.3601C177.489 47.3601 177.021 47.4861 176.673 47.7381C176.325 47.9901 176.151 48.3201 176.151 48.7281C176.151 49.0521 176.253 49.3221 176.457 49.5381C176.673 49.7421 176.937 49.9101 177.249 50.0421C177.573 50.1621 178.017 50.3001 178.581 50.4561C179.289 50.6481 179.865 50.8401 180.309 51.0321C180.753 51.2121 181.131 51.4881 181.443 51.8601C181.767 52.2321 181.935 52.7181 181.947 53.3181C181.947 53.8581 181.797 54.3441 181.497 54.7761C181.197 55.2081 180.771 55.5501 180.219 55.8021C179.679 56.0421 179.055 56.1621 178.347 56.1621Z" fill="white"/>
    <path d="M18.904 5.29606L15.576 22.0001H14.04L14.68 18.7361C13.8693 19.8027 12.856 20.6347 11.64 21.2321C10.4453 21.8294 9.112 22.1281 7.64 22.1281C5.464 22.1281 3.71467 21.5094 2.392 20.2721C1.09067 19.0134 0.440002 17.3174 0.440002 15.1841C0.440002 13.2854 0.845336 11.5787 1.656 10.0641C2.46667 8.52806 3.58667 7.33339 5.016 6.48006C6.46667 5.60539 8.088 5.16806 9.88 5.16806C11.608 5.16806 13.0373 5.54139 14.168 6.28806C15.2987 7.03472 16.0667 8.09072 16.472 9.45606L17.304 5.29606H18.904ZM7.96 20.6881C9.45334 20.6881 10.7867 20.3254 11.96 19.6001C13.1547 18.8747 14.0933 17.8721 14.776 16.5921C15.4587 15.2907 15.8 13.8294 15.8 12.2081C15.8 10.4374 15.2773 9.06139 14.232 8.08006C13.208 7.09872 11.7573 6.60806 9.88 6.60806C8.38667 6.60806 7.04267 6.98139 5.848 7.72806C4.67467 8.45339 3.74667 9.46672 3.064 10.7681C2.38134 12.0481 2.04 13.4881 2.04 15.0881C2.04 16.8587 2.552 18.2347 3.576 19.2161C4.62134 20.1974 6.08267 20.6881 7.96 20.6881Z" fill="white"/>
  </g>
</svg>